<mxfile host="app.diagrams.net" agent="Mozilla/5.0 (Windows NT 10.0; Win64; x64) AppleWebKit/537.36 (KHTML, like Gecko) Chrome/135.0.0.0 Safari/537.36" version="26.2.13">
  <diagram name="PÃ¡gina-1" id="zq5bzWASCBP52Knegu3A">
    <mxGraphModel dx="1428" dy="785" grid="1" gridSize="10" guides="1" tooltips="1" connect="1" arrows="1" fold="1" page="1" pageScale="1" pageWidth="827" pageHeight="1169" math="0" shadow="0">
      <root>
        <mxCell id="0" />
        <mxCell id="1" parent="0" />
        <mxCell id="cSIIw7KwjZW6g6v-ZlAa-1" value="inicio" style="ellipse;whiteSpace=wrap;html=1;" vertex="1" parent="1">
          <mxGeometry x="354" y="20" width="120" height="80" as="geometry" />
        </mxCell>
        <mxCell id="cSIIw7KwjZW6g6v-ZlAa-2" value="informe um&amp;nbsp; &amp;nbsp;numero inteiro" style="shape=display;whiteSpace=wrap;html=1;" vertex="1" parent="1">
          <mxGeometry x="374" y="110" width="96" height="50" as="geometry" />
        </mxCell>
        <mxCell id="cSIIw7KwjZW6g6v-ZlAa-3" value="N" style="shape=manualInput;whiteSpace=wrap;html=1;" vertex="1" parent="1">
          <mxGeometry x="374" y="170" width="80" height="80" as="geometry" />
        </mxCell>
        <mxCell id="cSIIw7KwjZW6g6v-ZlAa-4" style="edgeStyle=orthogonalEdgeStyle;rounded=0;orthogonalLoop=1;jettySize=auto;html=1;exitX=0.5;exitY=1;exitDx=0;exitDy=0;entryX=0;entryY=0;entryDx=40;entryDy=0;entryPerimeter=0;" edge="1" parent="1" source="cSIIw7KwjZW6g6v-ZlAa-1" target="cSIIw7KwjZW6g6v-ZlAa-2">
          <mxGeometry relative="1" as="geometry" />
        </mxCell>
        <mxCell id="cSIIw7KwjZW6g6v-ZlAa-5" style="edgeStyle=orthogonalEdgeStyle;rounded=0;orthogonalLoop=1;jettySize=auto;html=1;exitX=0;exitY=0;exitDx=40;exitDy=40;exitPerimeter=0;entryX=0.511;entryY=0.191;entryDx=0;entryDy=0;entryPerimeter=0;" edge="1" parent="1" source="cSIIw7KwjZW6g6v-ZlAa-2" target="cSIIw7KwjZW6g6v-ZlAa-3">
          <mxGeometry relative="1" as="geometry" />
        </mxCell>
        <mxCell id="cSIIw7KwjZW6g6v-ZlAa-13" style="edgeStyle=orthogonalEdgeStyle;rounded=0;orthogonalLoop=1;jettySize=auto;html=1;exitX=0.5;exitY=1;exitDx=0;exitDy=0;entryX=0.5;entryY=0;entryDx=0;entryDy=0;" edge="1" parent="1" source="cSIIw7KwjZW6g6v-ZlAa-6" target="cSIIw7KwjZW6g6v-ZlAa-9">
          <mxGeometry relative="1" as="geometry" />
        </mxCell>
        <mxCell id="cSIIw7KwjZW6g6v-ZlAa-6" value="i = 1" style="shape=parallelogram;perimeter=parallelogramPerimeter;whiteSpace=wrap;html=1;fixedSize=1;" vertex="1" parent="1">
          <mxGeometry x="350" y="280" width="120" height="60" as="geometry" />
        </mxCell>
        <mxCell id="cSIIw7KwjZW6g6v-ZlAa-7" style="edgeStyle=orthogonalEdgeStyle;rounded=0;orthogonalLoop=1;jettySize=auto;html=1;exitX=0.5;exitY=1;exitDx=0;exitDy=0;entryX=0.569;entryY=-0.026;entryDx=0;entryDy=0;entryPerimeter=0;" edge="1" parent="1" source="cSIIw7KwjZW6g6v-ZlAa-3" target="cSIIw7KwjZW6g6v-ZlAa-6">
          <mxGeometry relative="1" as="geometry" />
        </mxCell>
        <mxCell id="cSIIw7KwjZW6g6v-ZlAa-10" style="edgeStyle=orthogonalEdgeStyle;rounded=0;orthogonalLoop=1;jettySize=auto;html=1;exitX=1;exitY=0.5;exitDx=0;exitDy=0;" edge="1" parent="1" source="cSIIw7KwjZW6g6v-ZlAa-9">
          <mxGeometry relative="1" as="geometry">
            <mxPoint x="540" y="400.1428571428571" as="targetPoint" />
          </mxGeometry>
        </mxCell>
        <mxCell id="cSIIw7KwjZW6g6v-ZlAa-11" value="Nao" style="edgeLabel;html=1;align=center;verticalAlign=middle;resizable=0;points=[];" vertex="1" connectable="0" parent="cSIIw7KwjZW6g6v-ZlAa-10">
          <mxGeometry x="-0.1357" relative="1" as="geometry">
            <mxPoint as="offset" />
          </mxGeometry>
        </mxCell>
        <mxCell id="cSIIw7KwjZW6g6v-ZlAa-14" style="edgeStyle=orthogonalEdgeStyle;rounded=0;orthogonalLoop=1;jettySize=auto;html=1;exitX=0.5;exitY=1;exitDx=0;exitDy=0;entryX=0;entryY=0;entryDx=40;entryDy=0;entryPerimeter=0;" edge="1" parent="1" source="cSIIw7KwjZW6g6v-ZlAa-9" target="cSIIw7KwjZW6g6v-ZlAa-17">
          <mxGeometry relative="1" as="geometry">
            <mxPoint x="410" y="490" as="targetPoint" />
          </mxGeometry>
        </mxCell>
        <mxCell id="cSIIw7KwjZW6g6v-ZlAa-15" value="Sim" style="edgeLabel;html=1;align=center;verticalAlign=middle;resizable=0;points=[];" vertex="1" connectable="0" parent="cSIIw7KwjZW6g6v-ZlAa-14">
          <mxGeometry x="-0.18" y="2" relative="1" as="geometry">
            <mxPoint as="offset" />
          </mxGeometry>
        </mxCell>
        <mxCell id="cSIIw7KwjZW6g6v-ZlAa-9" value="i &amp;lt;= N?" style="rhombus;whiteSpace=wrap;html=1;" vertex="1" parent="1">
          <mxGeometry x="370" y="360" width="80" height="80" as="geometry" />
        </mxCell>
        <mxCell id="cSIIw7KwjZW6g6v-ZlAa-12" value="fim" style="ellipse;whiteSpace=wrap;html=1;" vertex="1" parent="1">
          <mxGeometry x="570" y="360" width="120" height="80" as="geometry" />
        </mxCell>
        <mxCell id="cSIIw7KwjZW6g6v-ZlAa-19" style="edgeStyle=orthogonalEdgeStyle;rounded=0;orthogonalLoop=1;jettySize=auto;html=1;exitX=0;exitY=0.5;exitDx=0;exitDy=0;entryX=0;entryY=0.5;entryDx=0;entryDy=0;" edge="1" parent="1" source="cSIIw7KwjZW6g6v-ZlAa-16" target="cSIIw7KwjZW6g6v-ZlAa-9">
          <mxGeometry relative="1" as="geometry" />
        </mxCell>
        <mxCell id="cSIIw7KwjZW6g6v-ZlAa-16" value="i = i + 1" style="rounded=1;whiteSpace=wrap;html=1;" vertex="1" parent="1">
          <mxGeometry x="350" y="590" width="120" height="60" as="geometry" />
        </mxCell>
        <mxCell id="cSIIw7KwjZW6g6v-ZlAa-18" style="edgeStyle=orthogonalEdgeStyle;rounded=0;orthogonalLoop=1;jettySize=auto;html=1;exitX=0;exitY=0;exitDx=40;exitDy=40;exitPerimeter=0;entryX=0.5;entryY=0;entryDx=0;entryDy=0;" edge="1" parent="1" source="cSIIw7KwjZW6g6v-ZlAa-17" target="cSIIw7KwjZW6g6v-ZlAa-16">
          <mxGeometry relative="1" as="geometry" />
        </mxCell>
        <mxCell id="cSIIw7KwjZW6g6v-ZlAa-17" value="i" style="shape=display;whiteSpace=wrap;html=1;" vertex="1" parent="1">
          <mxGeometry x="370" y="520" width="80" height="40" as="geometry" />
        </mxCell>
      </root>
    </mxGraphModel>
  </diagram>
</mxfile>
